<svg id="visual" viewBox="0 0 900 600" width="900" height="600" xmlns="http://www.w3.org/2000/svg" xmlns:xlink="http://www.w3.org/1999/xlink" version="1.1"><path d="M0 387L18.8 380.2C37.7 373.3 75.3 359.7 112.8 351.5C150.3 343.3 187.7 340.7 225.2 345.5C262.7 350.3 300.3 362.7 337.8 364.5C375.3 366.3 412.7 357.7 450.2 354.8C487.7 352 525.3 355 562.8 357.3C600.3 359.7 637.7 361.3 675.2 359.2C712.7 357 750.3 351 787.8 354.2C825.3 357.3 862.7 369.7 881.3 375.8L900 382L900 601L881.3 601C862.7 601 825.3 601 787.8 601C750.3 601 712.7 601 675.2 601C637.7 601 600.3 601 562.8 601C525.3 601 487.7 601 450.2 601C412.7 601 375.3 601 337.8 601C300.3 601 262.7 601 225.2 601C187.7 601 150.3 601 112.8 601C75.3 601 37.7 601 18.8 601L0 601Z" fill="#5865f2"></path><path d="M0 434L18.8 428.3C37.7 422.7 75.3 411.3 112.8 406.8C150.3 402.3 187.7 404.7 225.2 405C262.7 405.3 300.3 403.7 337.8 404C375.3 404.3 412.7 406.7 450.2 408.2C487.7 409.7 525.3 410.3 562.8 415.5C600.3 420.7 637.7 430.3 675.2 428C712.7 425.7 750.3 411.3 787.8 407.3C825.3 403.3 862.7 409.7 881.3 412.8L900 416L900 601L881.3 601C862.7 601 825.3 601 787.8 601C750.3 601 712.7 601 675.2 601C637.7 601 600.3 601 562.8 601C525.3 601 487.7 601 450.2 601C412.7 601 375.3 601 337.8 601C300.3 601 262.7 601 225.2 601C187.7 601 150.3 601 112.8 601C75.3 601 37.7 601 18.8 601L0 601Z" fill="#5b72ee"></path><path d="M0 458L18.8 455.7C37.7 453.3 75.3 448.7 112.8 444.8C150.3 441 187.7 438 225.2 436.7C262.7 435.3 300.3 435.7 337.8 442.8C375.3 450 412.7 464 450.2 467.5C487.7 471 525.3 464 562.8 454.7C600.3 445.3 637.7 433.7 675.2 434.3C712.7 435 750.3 448 787.8 458.5C825.3 469 862.7 477 881.3 481L900 485L900 601L881.3 601C862.7 601 825.3 601 787.8 601C750.3 601 712.7 601 675.2 601C637.7 601 600.3 601 562.8 601C525.3 601 487.7 601 450.2 601C412.7 601 375.3 601 337.8 601C300.3 601 262.7 601 225.2 601C187.7 601 150.3 601 112.8 601C75.3 601 37.7 601 18.8 601L0 601Z" fill="#627de8"></path><path d="M0 505L18.8 509.5C37.7 514 75.3 523 112.8 526C150.3 529 187.7 526 225.2 523.7C262.7 521.3 300.3 519.7 337.8 511.3C375.3 503 412.7 488 450.2 486.8C487.7 485.7 525.3 498.3 562.8 500.8C600.3 503.3 637.7 495.7 675.2 489.3C712.7 483 750.3 478 787.8 485C825.3 492 862.7 511 881.3 520.5L900 530L900 601L881.3 601C862.7 601 825.3 601 787.8 601C750.3 601 712.7 601 675.2 601C637.7 601 600.3 601 562.8 601C525.3 601 487.7 601 450.2 601C412.7 601 375.3 601 337.8 601C300.3 601 262.7 601 225.2 601C187.7 601 150.3 601 112.8 601C75.3 601 37.7 601 18.8 601L0 601Z" fill="#6c88e2"></path><path d="M0 560L18.8 553.3C37.7 546.7 75.3 533.3 112.8 531.5C150.3 529.7 187.7 539.3 225.2 545.3C262.7 551.3 300.3 553.7 337.8 554C375.3 554.3 412.7 552.7 450.2 552.8C487.7 553 525.3 555 562.8 559C600.3 563 637.7 569 675.2 568C712.7 567 750.3 559 787.8 558C825.3 557 862.7 563 881.3 566L900 569L900 601L881.3 601C862.7 601 825.3 601 787.8 601C750.3 601 712.7 601 675.2 601C637.7 601 600.3 601 562.8 601C525.3 601 487.7 601 450.2 601C412.7 601 375.3 601 337.8 601C300.3 601 262.7 601 225.2 601C187.7 601 150.3 601 112.8 601C75.3 601 37.7 601 18.8 601L0 601Z" fill="#7892da"></path></svg>