<svg id="visual" viewBox="0 0 1600 900" width="1600" height="900" xmlns="http://www.w3.org/2000/svg" xmlns:xlink="http://www.w3.org/1999/xlink" version="1.1"><rect x="0" y="0" width="1600" height="900" fill="#23272A"></rect><path d="M0 532L229 662L457 636L686 623L914 649L1143 599L1371 558L1600 647L1600 901L1371 901L1143 901L914 901L686 901L457 901L229 901L0 901Z" fill="#5865f2"></path><path d="M0 641L229 673L457 700L686 659L914 652L1143 610L1371 692L1600 607L1600 901L1371 901L1143 901L914 901L686 901L457 901L229 901L0 901Z" fill="#5b72ee"></path><path d="M0 698L229 697L457 742L686 745L914 670L1143 696L1371 711L1600 690L1600 901L1371 901L1143 901L914 901L686 901L457 901L229 901L0 901Z" fill="#627de8"></path><path d="M0 760L229 803L457 765L686 728L914 788L1143 784L1371 799L1600 752L1600 901L1371 901L1143 901L914 901L686 901L457 901L229 901L0 901Z" fill="#6c88e2"></path><path d="M0 818L229 801L457 826L686 810L914 861L1143 790L1371 833L1600 859L1600 901L1371 901L1143 901L914 901L686 901L457 901L229 901L0 901Z" fill="#7892da"></path></svg>